<?xml version="1.0" encoding="iso-8859-1"?>
<!-- Generator: Adobe Illustrator 24.1.2, SVG Export Plug-In . SVG Version: 6.00 Build 0)  -->
<svg version="1.1" xmlns="http://www.w3.org/2000/svg" xmlns:xlink="http://www.w3.org/1999/xlink" x="0px" y="0px"
	 viewBox="0 0 48 48" style="enable-background:new 0 0 48 48;" xml:space="preserve">
<g id="Layer_10" style="display:none;">
</g>
<g id="bubbles">
</g>
<g id="dotted">
</g>
<g id="clipart">
</g>
<g id="two_x5F_tone">
</g>
<g id="grdnt">
</g>
<g id="cute">
</g>
<g id="ios_x5F_out">
</g>
<g id="ios_x5F_filled">
	<path d="M47.527,20.65c-0.13-0.103-1.345-1.017-3.908-1.017c-0.677,0.003-1.352,0.061-2.019,0.173
		c-0.496-3.385-3.307-5.036-3.433-5.11l-0.688-0.395l-0.453,0.65c-0.567,0.874-0.981,1.837-1.224,2.848
		c-0.459,1.933-0.18,3.748,0.806,5.299C35.417,23.759,33.386,23.986,33,24H2c-1.105,0-2,0.895-2,2v0c0,2,0.434,4.924,1.387,7.515
		c1.089,2.844,2.71,4.939,4.818,6.221C8.567,41.177,12.405,42,16.756,42c1.965,0.006,3.927-0.171,5.859-0.529
		c2.686-0.491,5.271-1.426,7.647-2.766c1.958-1.129,3.72-2.566,5.219-4.254c2.505-2.824,3.997-5.969,5.107-8.763
		c0.005-0.003,0.009-0.005,0.014-0.009c2.997,0.121,4.81-1.037,5.788-2c0.618-0.584,1.101-1.296,1.414-2.085L48,21.022L47.527,20.65
		z"/>
	<path d="M7.5,22h-3C4.224,22,4,21.776,4,21.5v-3C4,18.224,4.224,18,4.5,18h3C7.776,18,8,18.224,8,18.5v3C8,21.776,7.776,22,7.5,22z
		"/>
	<path d="M13.5,22h-3c-0.276,0-0.5-0.224-0.5-0.5v-3c0-0.276,0.224-0.5,0.5-0.5h3c0.276,0,0.5,0.224,0.5,0.5v3
		C14,21.776,13.776,22,13.5,22z"/>
	<path d="M19.5,22h-3c-0.276,0-0.5-0.224-0.5-0.5v-3c0-0.276,0.224-0.5,0.5-0.5h3c0.276,0,0.5,0.224,0.5,0.5v3
		C20,21.776,19.776,22,19.5,22z"/>
	<path d="M25.5,22h-3c-0.276,0-0.5-0.224-0.5-0.5v-3c0-0.276,0.224-0.5,0.5-0.5h3c0.276,0,0.5,0.224,0.5,0.5v3
		C26,21.776,25.776,22,25.5,22z"/>
	<path d="M13.5,16h-3c-0.276,0-0.5-0.224-0.5-0.5v-3c0-0.276,0.224-0.5,0.5-0.5h3c0.276,0,0.5,0.224,0.5,0.5v3
		C14,15.776,13.776,16,13.5,16z"/>
	<path d="M19.5,16h-3c-0.276,0-0.5-0.224-0.5-0.5v-3c0-0.276,0.224-0.5,0.5-0.5h3c0.276,0,0.5,0.224,0.5,0.5v3
		C20,15.776,19.776,16,19.5,16z"/>
	<path d="M25.5,16h-3c-0.276,0-0.5-0.224-0.5-0.5v-3c0-0.276,0.224-0.5,0.5-0.5h3c0.276,0,0.5,0.224,0.5,0.5v3
		C26,15.776,25.776,16,25.5,16z"/>
	<path d="M25.5,10h-3C22.224,10,22,9.776,22,9.5v-3C22,6.224,22.224,6,22.5,6h3C25.776,6,26,6.224,26,6.5v3
		C26,9.776,25.776,10,25.5,10z"/>
	<path d="M31.5,22h-3c-0.276,0-0.5-0.224-0.5-0.5v-3c0-0.276,0.224-0.5,0.5-0.5h3c0.276,0,0.5,0.224,0.5,0.5v3
		C32,21.776,31.776,22,31.5,22z"/>
</g>
<g id="fluent">
</g>
<g id="cloud">
</g>
<g id="color">
</g>
</svg>